<?xml version="1.0" encoding="utf-8"?>
<!-- Generator: Adobe Illustrator 22.1.0, SVG Export Plug-In . SVG Version: 6.00 Build 0)  -->
<svg version="1.1" id="Layer_1" xmlns="http://www.w3.org/2000/svg" xmlns:xlink="http://www.w3.org/1999/xlink" x="0px" y="0px"
	 viewBox="0 0 421.5 91.1" style="enable-background:new 0 0 421.5 91.1;" xml:space="preserve">
<style type="text/css">
	.st0{enable-background:new    ;}
	.st1{fill:#ED1E79;}
	.st2{fill:#93278F;}
</style>
<title>Asset 1</title>
<g id="Layer_2_1_">
	<g id="Layer_1-2">
		<g class="st0">
			<path class="st1" d="M71,12.4v58.2H57.2V30.8L45.5,65.1H30.8L19.2,30.9v39.7H5.3V12.4h19.7l13.3,36.9l13.2-36.9H71z"/>
		</g>
		<g class="st0">
			<path class="st2" d="M97.5,13.7c3.8-1.5,7.9-2.3,12.3-2.3s8.5,0.8,12.3,2.3s7.1,3.6,9.7,6.3c2.7,2.7,4.8,5.9,6.3,9.6
				c1.5,3.7,2.3,7.7,2.3,12s-0.8,8.3-2.3,12c-1.5,3.7-3.6,6.9-6.3,9.6c-2.7,2.7-5.9,4.8-9.7,6.3c-3.8,1.5-7.9,2.3-12.3,2.3
				s-8.5-0.8-12.3-2.3c-3.8-1.5-7.1-3.6-9.7-6.3c-2.7-2.7-4.8-5.9-6.3-9.6c-1.5-3.7-2.3-7.7-2.3-12s0.8-8.3,2.3-12
				c1.5-3.7,3.6-6.9,6.3-9.6C90.4,17.3,93.7,15.2,97.5,13.7z M121.5,29.4c-3-3.1-6.9-4.7-11.7-4.7s-8.6,1.6-11.7,4.7
				s-4.5,7.2-4.5,12.2c0,5,1.5,9,4.5,12.2c3,3.1,6.9,4.7,11.7,4.7s8.6-1.6,11.7-4.7c3-3.1,4.5-7.2,4.5-12.2
				C126,36.5,124.5,32.5,121.5,29.4z"/>
		</g>
		<g class="st0">
			<path class="st2" d="M164.6,13.7c3.8-1.5,7.9-2.3,12.3-2.3s8.5,0.8,12.3,2.3s7.1,3.6,9.7,6.3c2.7,2.7,4.8,5.9,6.3,9.6
				c1.5,3.7,2.3,7.7,2.3,12s-0.8,8.3-2.3,12c-1.5,3.7-3.6,6.9-6.3,9.6c-2.7,2.7-5.9,4.8-9.7,6.3c-3.8,1.5-7.9,2.3-12.3,2.3
				s-8.5-0.8-12.3-2.3c-3.8-1.5-7.1-3.6-9.7-6.3c-2.7-2.7-4.8-5.9-6.3-9.6c-1.5-3.7-2.3-7.7-2.3-12s0.8-8.3,2.3-12
				c1.5-3.7,3.6-6.9,6.3-9.6C157.5,17.3,160.7,15.2,164.6,13.7z M188.6,29.4c-3-3.1-6.9-4.7-11.7-4.7s-8.6,1.6-11.7,4.7
				s-4.5,7.2-4.5,12.2c0,5,1.5,9,4.5,12.2c3,3.1,6.9,4.7,11.7,4.7s8.6-1.6,11.7-4.7c3-3.1,4.5-7.2,4.5-12.2
				C193.1,36.5,191.6,32.5,188.6,29.4z"/>
		</g>
		<g class="st0">
			<path class="st1" d="M261.9,17.6l-6.2,11.4c-5.5-3.3-11-4.9-16.7-4.9c-2.7,0-5,0.5-6.6,1.4c-1.7,0.9-2.5,2.2-2.5,3.9
				c0,0.9,0.3,1.6,0.8,2.2c0.5,0.6,1.4,1.1,2.8,1.6s2.4,0.7,3.4,1s2.5,0.5,4.6,0.9c0.2,0,0.3,0.1,0.5,0.1l2.4,0.4
				c5.8,1,10.4,2.9,13.6,5.7c3.2,2.8,4.8,6.4,4.8,11.1c0,2.7-0.5,5.1-1.4,7.3c-0.9,2.2-2.1,4.1-3.6,5.5c-1.5,1.5-3.3,2.8-5.4,3.8
				c-2.1,1-4.3,1.8-6.6,2.2c-2.3,0.5-4.8,0.7-7.3,0.7c-4.9,0-9.6-0.6-14.1-1.9c-4.5-1.3-8.3-3.1-11.5-5.5l6.9-11.3
				c6,4.1,12.2,6.1,18.8,6.1c2.7,0,5-0.5,6.7-1.4s2.6-2.3,2.6-4c0-1.6-0.9-2.8-2.6-3.6c-1.7-0.7-4.7-1.4-8.9-2.1l-2.9-0.5
				c-6.1-1-10.7-2.9-13.8-5.8c-3.1-2.9-4.6-6.9-4.4-12c0.1-5.6,2.3-10.1,6.6-13.4c4.3-3.4,9.9-5,16.8-5c4.2,0,8.1,0.4,11.7,1.3
				C253.8,13.6,257.7,15.2,261.9,17.6z"/>
			<path class="st1" d="M285,12.4v22.4h24.5V12.4h13.9v58.2h-13.9V47.7H285v22.9h-13.9V12.4H285z"/>
			<path class="st1" d="M368,12.4l22.3,58.2h-14.8l-4.4-12.2H348l-4.4,12.2h-14.5l22.3-58.2H368z M359.6,26.2l-7.1,19.6h14.1
				L359.6,26.2z"/>
			<path class="st1" d="M410,12.4v58.2h-13.9V12.4H410z"/>
		</g>
		<g>
			<circle class="st2" cx="109.9" cy="51" r="8.7"/>
		</g>
		<g>
			<circle class="st2" cx="177.4" cy="51" r="8.7"/>
		</g>
	</g>
</g>
</svg>
